<mxfile host="app.diagrams.net" modified="2022-10-18T00:40:40.237Z" agent="5.0 (Macintosh; Intel Mac OS X 10_15_7) AppleWebKit/537.36 (KHTML, like Gecko) Chrome/105.0.0.0 Safari/537.36" etag="CongHvYmnzx1m80HT4AB" version="20.4.1" type="github">
  <diagram id="7owxcrfFW0S7-pzrNQvk" name="第 1 页">
    <mxGraphModel dx="1042" dy="507" grid="1" gridSize="10" guides="1" tooltips="1" connect="1" arrows="1" fold="1" page="1" pageScale="1" pageWidth="827" pageHeight="1169" math="0" shadow="0">
      <root>
        <mxCell id="0" />
        <mxCell id="1" parent="0" />
        <mxCell id="sSKUDfJgeGCfyQRtqZQT-1" value="&lt;font color=&quot;#ff3333&quot;&gt;does this work with xbox?&lt;/font&gt;" style="strokeWidth=1;shadow=0;dashed=0;align=center;html=1;shape=mxgraph.mockup.forms.searchBox;strokeColor=#999999;mainText=;strokeColor2=#008cff;fontColor=#666666;fontSize=17;align=left;spacingLeft=3;" parent="1" vertex="1">
          <mxGeometry x="20" y="160" width="220" height="30" as="geometry" />
        </mxCell>
        <mxCell id="_r8GeZ9NIP6kNEGULhSm-1" value="" style="rounded=1;whiteSpace=wrap;html=1;" parent="1" vertex="1">
          <mxGeometry x="530" y="90" width="260" height="200" as="geometry" />
        </mxCell>
        <mxCell id="_r8GeZ9NIP6kNEGULhSm-2" value="Result" style="rounded=1;whiteSpace=wrap;html=1;fillColor=#3399FF;" parent="1" vertex="1">
          <mxGeometry x="590" y="50" width="130" height="30" as="geometry" />
        </mxCell>
        <mxCell id="_r8GeZ9NIP6kNEGULhSm-3" value="&lt;span style=&quot;font-family: &amp;quot;Helvetica Neue&amp;quot;, Helvetica, Arial, sans-serif; text-align: right; background-color: rgba(66, 165, 245, 0.2);&quot;&gt;&lt;font style=&quot;&quot; color=&quot;#ff0000&quot;&gt;&lt;b&gt;Does this work for xbox&lt;/b&gt;&lt;/font&gt; one S?&lt;/span&gt;" style="rounded=0;whiteSpace=wrap;html=1;" parent="1" vertex="1">
          <mxGeometry x="540" y="120" width="240" height="30" as="geometry" />
        </mxCell>
        <mxCell id="_r8GeZ9NIP6kNEGULhSm-4" value="&lt;span style=&quot;font-family: &amp;quot;Helvetica Neue&amp;quot;, Helvetica, Arial, sans-serif; text-align: right; background-color: rgba(66, 165, 245, 0.2);&quot;&gt;&lt;font color=&quot;#ff3333&quot;&gt;&lt;b&gt;Does it work&lt;/b&gt;&lt;/font&gt; for ps4&lt;/span&gt;" style="rounded=0;whiteSpace=wrap;html=1;" parent="1" vertex="1">
          <mxGeometry x="540" y="160" width="240" height="30" as="geometry" />
        </mxCell>
        <mxCell id="_r8GeZ9NIP6kNEGULhSm-5" value="&lt;span style=&quot;font-family: &amp;quot;Helvetica Neue&amp;quot;, Helvetica, Arial, sans-serif; text-align: right; background-color: rgba(66, 165, 245, 0.2);&quot;&gt;&lt;b&gt;&lt;font color=&quot;#ff3333&quot;&gt;does this work&lt;/font&gt; &lt;font color=&quot;#ff3333&quot;&gt;with&lt;/font&gt; &lt;/b&gt;pc&lt;/span&gt;" style="rounded=0;whiteSpace=wrap;html=1;" parent="1" vertex="1">
          <mxGeometry x="540" y="200" width="240" height="30" as="geometry" />
        </mxCell>
        <mxCell id="_r8GeZ9NIP6kNEGULhSm-6" value="&lt;span style=&quot;font-family: &amp;quot;Helvetica Neue&amp;quot;, Helvetica, Arial, sans-serif; text-align: right; background-color: rgba(66, 165, 245, 0.2);&quot;&gt;&lt;font color=&quot;#ff3333&quot;&gt;&lt;b&gt;does&lt;/b&gt;&lt;/font&gt; it &lt;font color=&quot;#ff3333&quot;&gt;&lt;b&gt;work&lt;/b&gt; &lt;b&gt;with&lt;/b&gt;&lt;/font&gt; Lucent 6416D&lt;/span&gt;" style="rounded=0;whiteSpace=wrap;html=1;" parent="1" vertex="1">
          <mxGeometry x="540" y="240" width="240" height="30" as="geometry" />
        </mxCell>
        <mxCell id="_r8GeZ9NIP6kNEGULhSm-7" value="" style="shape=singleArrow;whiteSpace=wrap;html=1;fillColor=#CCCCFF;" parent="1" vertex="1">
          <mxGeometry x="250" y="155" width="60" height="45" as="geometry" />
        </mxCell>
        <mxCell id="_r8GeZ9NIP6kNEGULhSm-8" value="" style="shape=image;verticalLabelPosition=bottom;labelBackgroundColor=default;verticalAlign=top;aspect=fixed;imageAspect=0;image=https://cdn-icons-png.flaticon.com/512/235/235231.png;" parent="1" vertex="1">
          <mxGeometry x="329" y="125" width="110" height="110" as="geometry" />
        </mxCell>
        <mxCell id="_r8GeZ9NIP6kNEGULhSm-10" value="Query" style="rounded=1;whiteSpace=wrap;html=1;fillColor=#3399FF;" parent="1" vertex="1">
          <mxGeometry x="38" y="50" width="130" height="30" as="geometry" />
        </mxCell>
        <mxCell id="_r8GeZ9NIP6kNEGULhSm-11" value="Keyword/Full Text Search" style="rounded=1;whiteSpace=wrap;html=1;fillColor=#3399FF;" parent="1" vertex="1">
          <mxGeometry x="319" y="50" width="152" height="30" as="geometry" />
        </mxCell>
        <mxCell id="_r8GeZ9NIP6kNEGULhSm-12" value="" style="shape=singleArrow;whiteSpace=wrap;html=1;fillColor=#CCCCFF;" parent="1" vertex="1">
          <mxGeometry x="449" y="160" width="61" height="45" as="geometry" />
        </mxCell>
      </root>
    </mxGraphModel>
  </diagram>
</mxfile>
